<?xml version="1.0" standalone="no"?><!DOCTYPE svg PUBLIC "-//W3C//DTD SVG 1.1//EN" "http://www.w3.org/Graphics/SVG/1.1/DTD/svg11.dtd"><svg t="1599529471846" class="icon" viewBox="0 0 1024 1024" version="1.1" xmlns="http://www.w3.org/2000/svg" p-id="570" width="48" height="48" xmlns:xlink="http://www.w3.org/1999/xlink"><defs><style type="text/css"></style></defs><path d="M890.109188 882.809434L684.15872 754.426389l0.255998-0.255998c-6.271953-3.327975-10.75192-9.599929-10.75192-17.279872 0-7.551944 4.479967-13.951896 10.75192-17.279871-0.127999-0.127999-0.127999-0.255998-0.255998-0.255998l49.407632-30.719772c2.815979-1.663988 5.119962-3.839971 7.551944-5.759957 5.503959-2.559981 10.75192-5.631958 15.615884-9.727928 114.047152-93.567304 165.246771-244.862179 125.567066-394.749064-37.247723-140.286957-156.670835-248.190154-299.517772-272.637972-238.590225-40.959695-446.33268 142.590939-446.332681 373.75722 0 126.591058 62.847533 244.478182 167.934751 315.133657 1.27999 0.895993 2.559981 1.40799 3.839972 2.175983 0.895993 0.639995 1.663988 1.40799 2.68798 2.047985l34.815741 21.759838c-0.127999 0.127999-0.127999 0.255998-0.255998 0.383997 5.247961 3.583973 8.831934 9.215931 8.831934 15.999881 0 6.015955-2.815979 11.135917-7.039948 14.719891 0.127999 0.127999 0.127999 0.255998 0.255998 0.255998l-208.638448 130.175032c-31.743764 19.839852-47.743645 59.903554-33.279752 94.463297 18.431863 44.031673 70.655474 59.519557 109.439186 35.327738l253.182117-157.950826c27.903792-17.407871 63.359529-17.407871 91.39132 0l254.334108 158.590821c38.783712 24.19182 91.007323 8.703935 109.439186-35.327737 14.463892-34.559743-1.535989-74.623445-33.279752-94.463298zM652.414956 561.787822l-92.927309 57.983568c-27.903792 17.407871-63.359529 17.407871-91.39132 0l-65.151516-40.703697c-3.96797-4.223969-8.191939-8.06394-13.183902-11.391915C312.321485 515.580165 273.409775 420.988869 295.681609 326.397572c20.479848-86.911354 93.439305-155.262845 181.50265-169.982735C619.135203 132.735013 742.398286 242.0462 742.398286 379.517177c0 68.095494-30.207775 131.967018-82.943383 175.102698-2.559981 2.175984-4.735965 4.735965-7.039947 7.167947z" fill="#36A99E" p-id="571"></path></svg>