<?xml version="1.0" standalone="no"?><!DOCTYPE svg PUBLIC "-//W3C//DTD SVG 1.1//EN" "http://www.w3.org/Graphics/SVG/1.1/DTD/svg11.dtd"><svg class="icon" width="128px" height="128.00px" viewBox="0 0 1024 1024" version="1.1" xmlns="http://www.w3.org/2000/svg"><path d="M851.748571 340.662857a36.571429 36.571429 0 0 1-25.782857-62.537143l107.885715-107.885714-107.885715-107.885714a36.571429 36.571429 0 0 1 0-51.565715 36.571429 36.571429 0 0 1 51.748572 0l133.668571 133.668572a36.571429 36.571429 0 0 1 10.605714 25.782857 36.571429 36.571429 0 0 1-10.605714 25.965714L877.714286 329.142857a36.571429 36.571429 0 0 1-25.965715 11.52zM851.748571 1024a36.571429 36.571429 0 0 1-25.782857-62.354286l107.885715-107.885714-107.885715-107.885714A36.571429 36.571429 0 1 1 877.714286 694.857143l133.851428 133.668571a36.571429 36.571429 0 0 1 10.605715 25.965715 36.571429 36.571429 0 0 1-10.605715 25.782857L877.714286 1013.211429a36.571429 36.571429 0 0 1-25.965715 10.788571z" fill="#1296db" /><path d="M944.822857 892.342857h-91.428571a384 384 0 0 1-382.902857-382.72A310.857143 310.857143 0 0 0 160.914286 199.862857H38.582857a36.571429 36.571429 0 0 1 0-73.142857H160.914286a384 384 0 0 1 382.72 382.902857A310.857143 310.857143 0 0 0 853.211429 819.2h91.428571a36.571429 36.571429 0 0 1 0 73.142857z" fill="#1296db" /><path d="M160.914286 892.342857H38.582857a36.571429 36.571429 0 0 1 0-73.142857H160.914286a309.394286 309.394286 0 0 0 256-136.594286 36.571429 36.571429 0 0 1 60.708571 40.96A382.72 382.72 0 0 1 160.914286 892.342857zM374.857143 554.422857H38.582857a36.571429 36.571429 0 0 1 0-73.142857H374.857143a36.571429 36.571429 0 0 1 0 73.142857zM567.771429 350.171429a36.571429 36.571429 0 0 1-20.662858-6.4 36.571429 36.571429 0 0 1-9.508571-51.2 384 384 0 0 1 315.611429-165.851429h91.428571a36.571429 36.571429 0 0 1 0 73.142857h-91.428571a309.577143 309.577143 0 0 0-256 134.582857 36.571429 36.571429 0 0 1-29.44 15.725715z" fill="#1296db" /></svg>