<?xml version="1.0" standalone="no"?><!DOCTYPE svg PUBLIC "-//W3C//DTD SVG 1.1//EN" "http://www.w3.org/Graphics/SVG/1.1/DTD/svg11.dtd"><svg class="icon" width="128px" height="128.00px" viewBox="0 0 1024 1024" version="1.1" xmlns="http://www.w3.org/2000/svg"><path d="M859.3 367.3c4.9 0 9.1 4.3 9.1 9.5v462.1c0 5.1-4.2 9.5-9.1 9.5H161.8c-4.9 0-9.1-4.3-9.1-9.5V376.8c0-5.1 4.2-9.5 9.1-9.5h697.5m20-47.3H151.8c-30.1 0-44.7 16.1-44.7 47.3v471.5c0 31.2 24.6 56.8 54.7 56.8h697.5c30.1 0 54.7-25.6 54.7-56.8V367.3c0-31.2-14.6-47.3-44.7-47.3h10z" fill="#1296db" /><path d="M333.4 543.4v63h-50.8v-63h-63v-50.8h63v-63h50.8v63h63v50.8h-63zM866.6 366.8L771 172.5H250.8l-95.6 194.3-45.8-17.9 97-197.1c3.4-13.8 18-23.8 36-23.8h536.9c18 0 32.6 10.1 36 23.8l97 197.1-45.7 17.9z" fill="#1296db" /><path d="M535.9 345.6H138.6l91.5-209.7h305.8zM535.9 602.1h263.2v50H535.9zM419.5 719.9h384.6v50H419.5z" fill="#1296db" /></svg>