<?xml version="1.0" standalone="no"?><!DOCTYPE svg PUBLIC "-//W3C//DTD SVG 1.1//EN" "http://www.w3.org/Graphics/SVG/1.1/DTD/svg11.dtd"><svg class="icon" width="200px" height="200.00px" viewBox="0 0 1024 1024" version="1.1" xmlns="http://www.w3.org/2000/svg"><path fill="#1296db" d="M460.8 1020H20c-8.8 0-16-7.2-16-16V417.6c0-8.8 7.2-16 16-16h440.8c8.8 0 16 7.2 16 16v586.4c0 8.8-7.2 16-16 16z m-424.8-32h408.8V433.6H36v554.4zM1004 1020H460.8c-8.8 0-16-7.2-16-16V20c0-8.8 7.2-16 16-16h543.2c8.8 0 16 7.2 16 16v984c0 8.8-7.2 16-16 16z m-527.2-32h511.2V36H476.8v952zM344 1012H113.6c-4.8 0-8-3.2-8-8V632.8c0-4.8 3.2-8 8-8H344c4.8 0 8 3.2 8 8v371.2c0 4.8-4 8-8 8z m-222.4-16H336V640.8H121.6v355.2zM686.4 252H554.4c-4.8 0-8-3.2-8-8V104.8c0-4.8 3.2-8 8-8h132c4.8 0 8 3.2 8 8v138.4c0 4.8-4 8.8-8 8.8z m-124-16h116V112.8H562.4v123.2zM910.4 252H778.4c-4.8 0-8-3.2-8-8V104.8c0-4.8 3.2-8 8-8h132c4.8 0 8 3.2 8 8v138.4c0 4.8-4 8.8-8 8.8z m-124-16h116V112.8H786.4v123.2zM686.4 472.8H554.4c-4.8 0-8-3.2-8-8V326.4c0-4.8 3.2-8 8-8h132c4.8 0 8 3.2 8 8v138.4c0 4.8-4 8-8 8z m-124-16h116V334.4H562.4v122.4zM910.4 472.8H778.4c-4.8 0-8-3.2-8-8V326.4c0-4.8 3.2-8 8-8h132c4.8 0 8 3.2 8 8v138.4c0 4.8-4 8-8 8z m-124-16h116V334.4H786.4v122.4zM686.4 694.4H554.4c-4.8 0-8-3.2-8-8V548c0-4.8 3.2-8 8-8h132c4.8 0 8 3.2 8 8v138.4c0 4.8-4 8-8 8z m-124-16h116V556H562.4v122.4zM910.4 694.4H778.4c-4.8 0-8-3.2-8-8V548c0-4.8 3.2-8 8-8h132c4.8 0 8 3.2 8 8v138.4c0 4.8-4 8-8 8z m-124-16h116V556H786.4v122.4zM686.4 916H554.4c-4.8 0-8-3.2-8-8V769.6c0-4.8 3.2-8 8-8h132c4.8 0 8 3.2 8 8v138.4c0 4.8-4 8-8 8z m-124-16h116V777.6H562.4v122.4zM910.4 916H778.4c-4.8 0-8-3.2-8-8V769.6c0-4.8 3.2-8 8-8h132c4.8 0 8 3.2 8 8v138.4c0 4.8-4 8-8 8z m-124-16h116V777.6H786.4v122.4zM327.2 146.4v194.4h-42.4v-75.2H195.2v75.2h-42.4V146.4h42.4v75.2h90.4v-75.2h41.6m0-32h-42.4c-17.6 0-32 14.4-32 32v43.2h-26.4v-43.2c0-17.6-14.4-32-32-32H152c-17.6 0-32 14.4-32 32v194.4c0 17.6 14.4 32 32 32h42.4c17.6 0 32-14.4 32-32v-43.2h26.4v43.2c0 17.6 14.4 32 32 32h42.4c17.6 0 32-14.4 32-32V146.4c0-17.6-14.4-32-32-32z" /></svg>